# xmcd
#
# Track frame offsets: 
#        150
#        14299
#        29804
#        45222
#        55656
#        67516
#        80403
#        91268
#        106530
#        121784
#
# Disc length: 1786 seconds
#
# Revision: 5
# Processed by: cddbd v1.5.2PL0 Copyright (c) Steve Scherf et al.
# Submitted via: ExactAudioCopy v1.3
#
DISCID=6406f80a
DTITLE=Ricky Van Shelton - Wild-Eyed Dream
DYEAR=1987
DGENRE=Country
TTITLE0=Ultimately Fine
TTITLE1=Crime Of Passion
TTITLE2=Life Turned Her That Way
TTITLE3=I Don't Care
TTITLE4=Don't We All Have That Right
TTITLE5=Wild-Eyed Dream
TTITLE6=Baby, I'm Ready
TTITLE7=Somebody Lied
TTITLE8=Crazy Over You
TTITLE9=Working Man Blues
EXTD=
EXTT0=
EXTT1=
EXTT2=
EXTT3=
EXTT4=
EXTT5=
EXTT6=
EXTT7=
EXTT8=
EXTT9=
PLAYORDER=
